<svg width="817" height="817" viewBox="0 0 817 817" fill="none" xmlns="http://www.w3.org/2000/svg">
<mask id="mask0_101_1364" style="mask-type:luminance" maskUnits="userSpaceOnUse" x="25" y="176" width="268" height="464">
<path d="M25.7246 176.985H292.978V639.869H25.7246V176.985Z" fill="white"/>
</mask>
<g mask="url(#mask0_101_1364)">
<mask id="mask1_101_1364" style="mask-type:luminance" maskUnits="userSpaceOnUse" x="25" y="17" width="766" height="783">
<path d="M781.555 337.257H416.978V488.411H626.833C607.269 584.439 525.463 639.566 416.978 639.566C288.932 639.566 185.783 536.425 185.783 408.387C185.783 280.352 288.932 177.211 416.978 177.211C472.11 177.211 521.906 196.773 561.03 228.782L674.849 114.973C605.491 54.5109 516.571 17.1675 416.978 17.1675C200.01 17.1675 25.7246 191.438 25.7246 408.387C25.7246 625.339 200.01 799.609 416.978 799.609C612.604 799.609 790.447 657.347 790.447 408.387C790.447 385.271 786.89 360.374 781.555 337.257Z" fill="white"/>
</mask>
<g mask="url(#mask1_101_1364)">
<path d="M-9.84375 639.565V177.211L292.488 408.387L-9.84375 639.565Z" fill="#FBBC05"/>
</g>
</g>
<mask id="mask2_101_1364" style="mask-type:luminance" maskUnits="userSpaceOnUse" x="25" y="16" width="766" height="393">
<path d="M25.7246 16.8813H790.447V408.427H25.7246V16.8813Z" fill="white"/>
</mask>
<g mask="url(#mask2_101_1364)">
<mask id="mask3_101_1364" style="mask-type:luminance" maskUnits="userSpaceOnUse" x="25" y="17" width="766" height="783">
<path d="M781.555 337.257H416.978V488.411H626.833C607.269 584.438 525.463 639.565 416.978 639.565C288.932 639.565 185.783 536.424 185.783 408.387C185.783 280.351 288.932 177.211 416.978 177.211C472.11 177.211 521.906 196.773 561.03 228.781L674.849 114.972C605.491 54.5104 516.571 17.167 416.978 17.167C200.01 17.167 25.7246 191.438 25.7246 408.387C25.7246 625.338 200.01 799.609 416.978 799.609C612.604 799.609 790.447 657.346 790.447 408.387C790.447 385.27 786.89 360.373 781.555 337.257Z" fill="white"/>
</mask>
<g mask="url(#mask3_101_1364)">
<path d="M-9.84375 177.211L292.488 408.387L416.977 299.913L843.798 230.559V-18.4004H-9.84375V177.211Z" fill="#EA4335"/>
</g>
</g>
<mask id="mask4_101_1364" style="mask-type:luminance" maskUnits="userSpaceOnUse" x="25" y="16" width="766" height="784">
<path d="M25.7246 16.8813H790.447V799.608H25.7246V16.8813Z" fill="white"/>
</mask>
<g mask="url(#mask4_101_1364)">
<mask id="mask5_101_1364" style="mask-type:luminance" maskUnits="userSpaceOnUse" x="25" y="17" width="766" height="783">
<path d="M781.555 337.257H416.978V488.411H626.833C607.269 584.438 525.463 639.565 416.978 639.565C288.932 639.565 185.783 536.424 185.783 408.387C185.783 280.351 288.932 177.211 416.978 177.211C472.11 177.211 521.906 196.773 561.03 228.781L674.849 114.972C605.491 54.5104 516.571 17.167 416.978 17.167C200.01 17.167 25.7246 191.438 25.7246 408.387C25.7246 625.338 200.01 799.609 416.978 799.609C612.604 799.609 790.447 657.346 790.447 408.387C790.447 385.27 786.89 360.373 781.555 337.257Z" fill="white"/>
</mask>
<g mask="url(#mask5_101_1364)">
<path d="M-9.84375 639.565L523.683 230.559L664.178 248.343L843.798 -18.4004V835.176H-9.84375V639.565Z" fill="#34A853"/>
</g>
</g>
<mask id="mask6_101_1364" style="mask-type:luminance" maskUnits="userSpaceOnUse" x="221" y="176" width="570" height="624">
<path d="M221.094 176.985H790.445V799.609H221.094V176.985Z" fill="white"/>
</mask>
<g mask="url(#mask6_101_1364)">
<mask id="mask7_101_1364" style="mask-type:luminance" maskUnits="userSpaceOnUse" x="25" y="17" width="766" height="783">
<path d="M781.555 337.257H416.978V488.411H626.833C607.269 584.439 525.463 639.566 416.978 639.566C288.932 639.566 185.783 536.425 185.783 408.387C185.783 280.352 288.932 177.211 416.978 177.211C472.11 177.211 521.906 196.773 561.03 228.782L674.849 114.973C605.491 54.5109 516.571 17.1675 416.978 17.1675C200.01 17.1675 25.7246 191.438 25.7246 408.387C25.7246 625.339 200.01 799.609 416.978 799.609C612.604 799.609 790.447 657.347 790.447 408.387C790.447 385.271 786.89 360.374 781.555 337.257Z" fill="white"/>
</mask>
<g mask="url(#mask7_101_1364)">
<path d="M843.799 835.176L292.488 408.387L221.352 355.04L843.799 177.211V835.176Z" fill="#4285F4"/>
</g>
</g>
</svg>
